<svg width="32" height="32" viewBox="0 0 32 32" xmlns="http://www.w3.org/2000/svg">
  <!-- Arizona State Outline -->
  <path d="M2 8 L6 6 L8 4 L10 3 L12 2 L14 2 L16 3 L18 4 L20 5 L22 6 L24 7 L26 8 L28 9 L29 10 L30 12 L30 14 L29 16 L28 18 L27 20 L26 22 L25 24 L24 26 L23 28 L22 29 L20 30 L18 30 L16 30 L14 30 L12 29 L10 28 L8 27 L6 26 L4 25 L3 24 L2 22 L2 20 L2 18 L2 16 L2 14 L2 12 L2 10 L2 8 Z" 
        fill="#D4AF37" stroke="#B8860B" stroke-width="0.5"/>
  
  <!-- Sky/Sun -->
  <circle cx="16" cy="8" r="3" fill="#FF6B35"/>
  <circle cx="16" cy="8" r="2" fill="#FF8C42"/>
  
  <!-- Radio Waves -->
  <path d="M16 5 Q18 6 20 7 Q22 8 24 9" stroke="#8B4513" stroke-width="0.3" fill="none"/>
  <path d="M16 5 Q14 6 12 7 Q10 8 8 9" stroke="#8B4513" stroke-width="0.3" fill="none"/>
  <path d="M16 4 Q19 5 22 6 Q25 7 28 8" stroke="#8B4513" stroke-width="0.2" fill="none"/>
  <path d="M16 4 Q13 5 10 6 Q7 7 4 8" stroke="#8B4513" stroke-width="0.2" fill="none"/>
  
  <!-- Cliffs/Mountains -->
  <path d="M4 20 L6 18 L8 17 L10 16 L12 15 L14 15 L16 16 L18 17 L20 18 L22 19 L24 20 L26 21 L28 22 L29 23 L30 24 L30 25 L29 26 L28 27 L26 28 L24 29 L22 30 L20 30 L18 30 L16 30 L14 30 L12 29 L10 28 L8 27 L6 26 L4 25 L3 24 L2 23 L2 22 L3 21 L4 20 Z" 
        fill="#CD853F"/>
  <path d="M6 26 L8 25 L10 24 L12 23 L14 23 L16 24 L18 25 L20 26 L22 27 L24 28 L26 29 L28 30 L29 30 L30 30 L30 29 L29 28 L28 27 L26 26 L24 25 L22 24 L20 23 L18 22 L16 22 L14 23 L12 24 L10 25 L8 26 L6 27 L4 28 L3 29 L2 30 L2 29 L3 28 L4 27 L6 26 Z" 
        fill="#D2691E"/>
  
  <!-- Saguaro Cactus -->
  <path d="M12 18 L12 16 L13 15 L14 14 L15 13 L16 13 L17 14 L18 15 L19 16 L19 18 L18 20 L17 22 L16 24 L15 26 L14 28 L13 30 L12 30 L11 28 L10 26 L9 24 L8 22 L7 20 L6 18 L7 16 L8 14 L9 12 L10 10 L11 8 L12 6 L13 6 L14 8 L15 10 L16 12 L17 14 L18 16 L19 18 L19 20 L18 22 L17 24 L16 26 L15 28 L14 30 L13 30 L12 28 L11 26 L10 24 L9 22 L8 20 L7 18 L8 16 L9 14 L10 12 L11 10 L12 8 L13 6 L14 6 L15 8 L16 10 L17 12 L18 14 L19 16 L19 18 L18 20 L17 22 L16 24 L15 26 L14 28 L13 30 L12 30 Z" 
        fill="#228B22"/>
  
  <!-- Desert Flora -->
  <circle cx="6" cy="18" r="1" fill="#556B2F"/>
  <circle cx="26" cy="18" r="1" fill="#556B2F"/>
  <circle cx="8" cy="20" r="0.8" fill="#556B2F"/>
  <circle cx="24" cy="20" r="0.8" fill="#556B2F"/>
</svg> 